<?xml version="1.0" encoding="UTF-8"?>
<!DOCTYPE svg PUBLIC "-//W3C//DTD SVG 1.1//EN" "http://www.w3.org/Graphics/SVG/1.1/DTD/svg11.dtd">
<!-- Creator: CorelDRAW X8 -->
<svg xmlns="http://www.w3.org/2000/svg" xml:space="preserve" width="196px" height="193px" version="1.1" style="shape-rendering:geometricPrecision; text-rendering:geometricPrecision; image-rendering:optimizeQuality; fill-rule:evenodd; clip-rule:evenodd"
viewBox="0 0 17632 17421"
 xmlns:xlink="http://www.w3.org/1999/xlink">
 <defs>
  <style type="text/css">
   <![CDATA[
    .fil0 {fill:#64737A;fill-rule:nonzero}
   ]]>
  </style>
 </defs>
 <g id="Capa_x0020_1">
  <metadata id="CorelCorpID_0Corel-Layer"/>
  <path class="fil0" d="M10872 9416c-78,0 -155,-30 -214,-89 -119,-118 -119,-309 0,-427l2497 -2498c84,-84 208,-111 319,-70 965,356 2057,118 2781,-606 609,-609 875,-1474 735,-2303l-1519 1519c-118,118 -309,118 -428,0l-1736 -1737c-57,-57 -89,-134 -89,-213 0,-81 32,-158 89,-215l1519 -1519c-830,-139 -1694,127 -2303,736 -724,724 -962,1815 -607,2780 41,111 14,235 -70,319l-2568 2569c-119,118 -310,118 -428,0 -119,-119 -119,-310 0,-428l2436 -2437c-343,-1138 -35,-2387 809,-3231 894,-894 2237,-1188 3420,-747 97,36 168,118 191,219 21,101 -9,205 -82,278l-1676 1676 1309 1308 1676 -1675c72,-73 177,-103 278,-82 101,22 183,94 219,190 440,1184 147,2526 -747,3421 -845,844 -2095,1151 -3232,808l-2365 2365c-59,59 -137,89 -214,89z"/>
  <path class="fil0" d="M4068 17421c-378,0 -759,-66 -1124,-201 -97,-37 -168,-119 -190,-220 -22,-101 8,-205 81,-278l1675 -1675 -1308 -1309 -1675 1676c-73,72 -178,102 -279,81 -100,-22 -183,-93 -219,-190 -440,-1184 -147,-2526 748,-3420 844,-845 2092,-1152 3231,-809l2016 -2016c118,-119 310,-119 428,0 118,118 118,309 0,428l-2149 2148c-84,83 -208,110 -318,70 -964,-355 -2056,-118 -2780,607 -610,609 -876,1473 -736,2303l1519 -1520c113,-113 314,-113 428,0l1736 1737c118,118 118,309 0,428l-1519 1519c830,139 1694,-127 2303,-736 725,-724 963,-1816 607,-2781 -41,-110 -14,-235 69,-318l2238 -2238c118,-118 309,-118 428,0 118,119 118,310 0,428l-2105 2105c343,1138 36,2388 -809,3232 -618,618 -1450,949 -2296,949z"/>
  <path class="fil0" d="M1042 5701c-7,0 -15,3 -22,9l-367 367c-31,31 -48,72 -48,115 0,44 17,85 48,116l1534 1534c62,62 170,62 232,0l388 -388c12,-12 12,-32 0,-44l-87 -87c-349,-349 -349,-917 0,-1265 168,-169 393,-262 632,-262 239,0 464,93 633,262l109 109 2102 -2102c227,-227 227,-596 0,-823l-212 -211c-118,-119 -118,-310 0,-428l39 -39c95,-95 187,-190 277,-284 741,-767 1504,-1560 2872,-1027l13 -13c-1203,-993 -2867,-827 -4146,450l-2657 2658 21 22c370,370 370,970 0,1340 -369,369 -970,369 -1339,0 -6,-6 -14,-9 -22,-9zm1261 2794c-206,0 -399,-80 -544,-225l-1534 -1534c-145,-145 -225,-338 -225,-544 0,-205 80,-398 225,-543l367 -367c248,-248 652,-248 900,0 133,133 350,133 483,0 134,-134 134,-350 0,-484l-235 -235c-119,-119 -119,-310 0,-428l2871 -2872c1586,-1586 3784,-1690 5226,-247 57,57 89,134 89,214 0,80 -32,157 -89,214l-381 381c-91,91 -227,114 -342,61 -1100,-510 -1636,45 -2378,814 -37,39 -74,77 -111,115 462,463 461,1215 -1,1678l-2316 2316c-118,118 -310,118 -428,0l-323 -323c-110,-110 -300,-110 -410,0 -112,112 -112,296 0,409l88 87c120,121 186,280 186,450 0,170 -66,330 -186,450l-388 388c-145,145 -339,225 -544,225z"/>
  <path class="fil0" d="M1877 3268c-82,0 -164,-34 -224,-99 -266,-292 -256,-739 23,-1018l474 -473c279,-279 726,-289 1017,-23 124,112 133,304 20,427 -113,124 -304,132 -428,20 -52,-48 -131,-46 -181,4l-474 473c-50,50 -51,130 -4,182 113,123 104,315 -19,428 -58,52 -132,79 -204,79z"/>
  <path class="fil0" d="M15060 16919c-15,0 -30,-1 -44,-1 -512,-11 -984,-226 -1330,-605l-9244 -10085c-113,-124 -104,-315 19,-428 123,-113 315,-105 428,18l9243 10087c233,255 552,400 898,408 342,8 670,-123 914,-367 245,-244 375,-569 367,-915 -8,-345 -152,-664 -407,-897l-10088 -9243c-123,-113 -131,-304 -18,-427 112,-123 304,-132 427,-19l10087 9243c378,345 593,818 604,1330 12,512 -181,994 -544,1356 -352,352 -817,545 -1312,545z"/>
 </g>
</svg>
