<?xml version="1.0" encoding="UTF-8"?>
<!DOCTYPE svg PUBLIC "-//W3C//DTD SVG 1.1//EN" "http://www.w3.org/Graphics/SVG/1.1/DTD/svg11.dtd">
<!-- Creator: CorelDRAW X8 -->
<svg xmlns="http://www.w3.org/2000/svg" xml:space="preserve" width="188px" height="194px" version="1.1" style="shape-rendering:geometricPrecision; text-rendering:geometricPrecision; image-rendering:optimizeQuality; fill-rule:evenodd; clip-rule:evenodd"
viewBox="0 0 198684 205186"
 xmlns:xlink="http://www.w3.org/1999/xlink">
 <defs>
  <style type="text/css">
   <![CDATA[
    .fil0 {fill:#64737A;fill-rule:nonzero}
   ]]>
  </style>
 </defs>
 <g id="Capa_x0020_1">
  <metadata id="CorelCorpID_0Corel-Layer"/>
  <path class="fil0" d="M194572 24866l23 0 -23 0zm-125982 135240c-12988,0 -25999,1590 -38778,4779 -7505,1876 -12746,8606 -12746,16363 0,9280 7550,16825 16825,16825l110227 0 47018 -174133c1798,-6642 -2127,-13596 -8738,-15495 -5259,-1519 -10857,449 -13914,4903 -28761,41890 -42327,94155 -38196,147163 208,2682 -934,5268 -3052,6911 -2062,1603 -4752,2056 -7223,1216 -16672,-5678 -34030,-8532 -51423,-8532zm77021 45080l-111720 0c-13195,0 -23938,-10739 -23938,-23938 0,-11029 7456,-20592 18138,-23261 31214,-7800 63799,-6444 94217,3920 83,26 294,106 568,-101 106,-84 352,-322 321,-744 -4254,-54625 9747,-108514 39426,-151741 4786,-6971 13530,-10073 21740,-7712 10324,2964 16442,13818 13640,24185l0 0 -47410 175578c-612,2251 -2661,3814 -4982,3814z"/>
  <path class="fil0" d="M109358 192374l-73885 0c-1965,0 -3560,-1591 -3560,-3555 0,-1965 1595,-3560 3560,-3560l73885 0c1965,0 3555,1595 3555,3560 0,1964 -1590,3555 -3555,3555z"/>
  <path class="fil0" d="M3557 130036c-1154,0 -2290,-563 -2976,-1608 -1075,-1642 -613,-3844 1026,-4924l36200 -23710c1643,-1070 3850,-616 4924,1027 1080,1643 616,3850 -1027,4924l-36199 23709c-600,392 -1278,582 -1948,582z"/>
  <path class="fil0" d="M3557 90026c-1413,0 -2748,-847 -3302,-2237 -728,-1824 162,-3895 1986,-4621l26497 -10571c1820,-718 3890,163 4620,1986 727,1824 -162,3894 -1986,4621l-26498 10571c-432,171 -876,251 -1317,251z"/>
  <path class="fil0" d="M28329 55693c-164,0 -348,35 -547,118 -814,358 -1145,1124 -885,1811l21855 58363c181,476 542,692 741,781 202,87 603,207 1073,17 697,-282 1035,-1057 772,-1762l0 0 -21711 -58425c-179,-485 -550,-701 -752,-790 -124,-52 -313,-113 -546,-113zm21718 68309c-1159,0 -2317,-242 -3413,-723 -2119,-929 -3726,-2633 -4538,-4795l-21859 -58365c-1585,-4224 415,-8955 4550,-10760 2277,-996 4727,-1009 6863,-101 2140,911 3832,2678 4642,4858l21714 58426c1612,4333 -480,9087 -4762,10831 -1035,418 -2118,629 -3197,629z"/>
  <path class="fil0" d="M56271 107881c14508,20151 33633,29533 48811,23882 9949,-3696 17107,-13417 20150,-27365 3171,-14522 1498,-31709 -4708,-48406 -12610,-33928 -40042,-55149 -61179,-47296 -15187,5642 -23546,25225 -21361,49965l18287 49220zm39702 32603c-15663,0 -32638,-10422 -45762,-28859 -181,-256 -331,-533 -437,-824l-18627 -50109c-105,-291 -176,-596 -202,-908 -2639,-28255 7541,-50924 25925,-57756 24802,-9218 56346,13878 70322,51484 6673,17957 8444,36566 4990,52400 -3580,16398 -12324,27947 -24621,32519 -3721,1384 -7611,2053 -11588,2053z"/>
 </g>
</svg>
