<?xml version="1.0" encoding="UTF-8"?>
<!DOCTYPE svg PUBLIC "-//W3C//DTD SVG 1.1//EN" "http://www.w3.org/Graphics/SVG/1.1/DTD/svg11.dtd">
<!-- Creator: CorelDRAW X8 -->
<svg xmlns="http://www.w3.org/2000/svg" xml:space="preserve" width="194px" height="183px" version="1.1" style="shape-rendering:geometricPrecision; text-rendering:geometricPrecision; image-rendering:optimizeQuality; fill-rule:evenodd; clip-rule:evenodd"
viewBox="0 0 15385 14511"
 xmlns:xlink="http://www.w3.org/1999/xlink">
 <defs>
  <style type="text/css">
   <![CDATA[
    .fil0 {fill:#64737A;fill-rule:nonzero}
   ]]>
  </style>
 </defs>
 <g id="Capa_x0020_1">
  <metadata id="CorelCorpID_0Corel-Layer"/>
  <path class="fil0" d="M922 3456c-215,0 -389,175 -389,389l0 9744c0,214 174,389 389,389l13541 0c214,0 389,-175 389,-389l0 -9744c0,-214 -175,-389 -389,-389l-13541 0zm13541 11055l-13541 0c-509,0 -922,-413 -922,-922l0 -9744c0,-508 413,-922 922,-922l13541 0c508,0 922,414 922,922l0 9744c0,509 -414,922 -922,922z"/>
  <path class="fil0" d="M2639 2923l1718 0 0 -1531c0,-474 -385,-859 -859,-859 -474,0 -859,385 -859,859l0 1531zm1985 533l-2252 0c-147,0 -266,-119 -266,-266l0 -1798c0,-767 625,-1392 1392,-1392 768,0 1392,625 1392,1392l0 1798c0,147 -119,266 -266,266z"/>
  <path class="fil0" d="M11027 2923l1718 0 0 -1531c0,-474 -385,-859 -859,-859 -473,0 -859,385 -859,859l0 1531zm1985 533l-2251 0c-148,0 -267,-119 -267,-266l0 -1798c0,-767 625,-1392 1392,-1392 768,0 1392,625 1392,1392l0 1798c0,147 -119,266 -266,266z"/>
  <path class="fil0" d="M5227 5876l-2855 0c-147,0 -266,-120 -266,-267 0,-147 119,-266 266,-266l2855 0c147,0 266,119 266,266 0,147 -119,267 -266,267z"/>
  <path class="fil0" d="M13291 5876l-2855 0c-147,0 -266,-120 -266,-267 0,-147 119,-266 266,-266l2855 0c147,0 266,119 266,266 0,147 -119,267 -266,267z"/>
  <path class="fil0" d="M3799 7303c-146,0 -266,-120 -266,-267l0 -2854c0,-147 120,-267 266,-267 148,0 267,120 267,267l0 2854c0,147 -119,267 -267,267z"/>
  <path class="fil0" d="M6137 9677l1555 0c77,0 150,33 201,91 51,58 73,135 63,211l-132 989 1020 -1984 -1152 0c-86,0 -167,-42 -217,-113 -50,-70 -63,-160 -35,-242l716 -2048 -1168 0 -851 3096zm1218 3053c-27,0 -54,-4 -80,-12 -124,-39 -202,-161 -184,-290l297 -2218 -1601 0c-83,0 -162,-39 -212,-105 -50,-66 -67,-152 -45,-232l998 -3629c32,-116 137,-196 257,-196l1746 0c87,0 167,42 217,112 50,71 63,161 35,243l-716 2048 1214 0c93,0 179,48 227,127 49,80 52,178 10,261l-1926 3746c-47,91 -140,145 -237,145z"/>
 </g>
</svg>
