<?xml version="1.0" encoding="UTF-8"?>
<!DOCTYPE svg PUBLIC "-//W3C//DTD SVG 1.1//EN" "http://www.w3.org/Graphics/SVG/1.1/DTD/svg11.dtd">
<!-- Creator: CorelDRAW X8 -->
<svg xmlns="http://www.w3.org/2000/svg" xml:space="preserve" width="194px" height="194px" version="1.1" style="shape-rendering:geometricPrecision; text-rendering:geometricPrecision; image-rendering:optimizeQuality; fill-rule:evenodd; clip-rule:evenodd"
viewBox="0 0 196068 196085"
 xmlns:xlink="http://www.w3.org/1999/xlink">
 <defs>
  <style type="text/css">
   <![CDATA[
    .fil0 {fill:#64737A;fill-rule:nonzero}
   ]]>
  </style>
 </defs>
 <g id="Capa_x0020_1">
  <metadata id="CorelCorpID_0Corel-Layer"/>
  <path class="fil0" d="M98034 27677c-23533,0 -45410,11699 -58516,31290 -7331,10948 -11407,23717 -11794,36917 -22,713 -42,1433 -42,2147 0,29064 17464,54767 44494,65480 16502,6493 35205,6498 51724,-5 27034,-10705 44507,-36407 44507,-65475 0,-714 -21,-1434 -42,-2147 -387,-13200 -4464,-25969 -11789,-36917 -13128,-19591 -35013,-31290 -58542,-31290zm0 147514c-9760,0 -19301,-1808 -28355,-5367 -29636,-11747 -48786,-39929 -48786,-71793 0,-782 25,-1565 47,-2346 424,-14480 4896,-28481 12937,-40489 14367,-21482 38349,-34306 64157,-34306 25795,0 49786,12824 64177,34301 8041,12013 12517,26014 12938,40494 25,781 46,1564 46,2346 0,31868 -19158,60048 -48802,71790 -9059,3562 -18600,5370 -28359,5370z"/>
  <path class="fil0" d="M98034 6784c-28792,0 -55305,13176 -72740,36151 -12105,15947 -18506,35000 -18506,55096 0,356 0,698 16,1054 434,34971 21138,66994 52745,81719 12089,5635 25039,8495 38485,8495 13450,0 26395,-2860 38479,-8495 31616,-14725 52321,-46748 52746,-81584 21,-480 21,-828 21,-1189 0,-20075 -6394,-39119 -18486,-55070l0 0c-17442,-22992 -43965,-36177 -72760,-36177zm0 189301c-14446,0 -28359,-3072 -41351,-9134 -33957,-15815 -56200,-50219 -56658,-87648 -21,-340 -25,-792 -25,-1272 0,-21593 6881,-42061 19889,-59197 18729,-24682 47209,-38834 78145,-38834 30940,0 59428,14161 78169,38855 0,4 0,4 0,4 12993,17140 19865,37604 19865,59172 0,474 -4,919 -26,1395 -454,37306 -22697,71710 -56662,87525 -12984,6062 -26896,9134 -41346,9134z"/>
  <path class="fil0" d="M98034 27677c-23533,0 -45410,11699 -58516,31290 -7331,10948 -11407,23717 -11794,36917 -22,713 -42,1433 -42,2147 0,29064 17464,54767 44494,65480 16502,6493 35205,6498 51724,-5 27034,-10705 44507,-36407 44507,-65475 0,-714 -21,-1434 -42,-2147 -387,-13200 -4464,-25969 -11789,-36917 -13128,-19591 -35013,-31290 -58542,-31290zm0 147514c-9760,0 -19301,-1808 -28355,-5367 -29636,-11747 -48786,-39929 -48786,-71793 0,-782 25,-1565 47,-2346 424,-14480 4896,-28481 12937,-40489 14367,-21482 38349,-34306 64157,-34306 25795,0 49786,12824 64177,34301 8041,12013 12517,26014 12938,40494 25,781 46,1564 46,2346 0,31868 -19158,60048 -48802,71790 -9059,3562 -18600,5370 -28359,5370z"/>
  <path class="fil0" d="M98034 27677c-23533,0 -45410,11699 -58516,31290 -7331,10948 -11407,23717 -11794,36917 -22,713 -42,1433 -42,2147 0,29064 17464,54767 44494,65480 16502,6493 35205,6498 51724,-5 27034,-10705 44507,-36407 44507,-65475 0,-714 -21,-1434 -42,-2147 -387,-13200 -4464,-25969 -11789,-36917 -13128,-19591 -35013,-31290 -58542,-31290zm0 147514c-9760,0 -19301,-1808 -28355,-5367 -29636,-11747 -48786,-39929 -48786,-71793 0,-782 25,-1565 47,-2346 424,-14480 4896,-28481 12937,-40489 14367,-21482 38349,-34306 64157,-34306 25795,0 49786,12824 64177,34301 8041,12013 12517,26014 12938,40494 25,781 46,1564 46,2346 0,31868 -19158,60048 -48802,71790 -9059,3562 -18600,5370 -28359,5370z"/>
  <path class="fil0" d="M98038 75103c-7789,0 -14122,6333 -14122,14117 0,7785 6333,14118 14122,14118 7785,0 14118,-6333 14118,-14118 0,-7784 -6333,-14117 -14118,-14117zm0 35023c-11530,0 -20906,-9377 -20906,-20906 0,-11528 9376,-20905 20906,-20905 11529,0 20906,9377 20906,20905 0,11529 -9377,20906 -20906,20906z"/>
  <path class="fil0" d="M165573 71471c-622,0 -1252,-168 -1815,-525 -17355,-11018 -40686,-17083 -65699,-17083 -25034,0 -48374,6065 -65729,17083 -1577,999 -3673,538 -4683,-1047 -999,-1584 -533,-3682 1048,-4688 18422,-11693 43056,-18136 69364,-18136 26287,0 50913,6443 69335,18136 1580,1006 2052,3104 1046,4688 -647,1017 -1744,1572 -2867,1572z"/>
  <path class="fil0" d="M36693 60475c-647,0 -1307,-184 -1883,-572 -1559,-1042 -1975,-3152 -937,-4707 14371,-21482 38353,-34306 64161,-34306 25795,0 49786,12824 64177,34301 1043,1560 630,3666 -928,4708 -1564,1042 -3666,626 -4707,-929 -13128,-19594 -35013,-31293 -58542,-31293 -23533,0 -45410,11699 -58516,31290 -656,979 -1733,1508 -2825,1508z"/>
  <path class="fil0" d="M168398 99265c-19023,899 -33986,8593 -41375,21379 -6683,11575 -6717,26251 -156,41611 24967,-11203 41061,-35505 41531,-62990zm-43254 70793c-1270,0 -2480,-717 -3059,-1929 -8874,-18497 -9205,-36566 -938,-50877 9057,-15678 27497,-24740 50593,-24863 9,0 12,0 17,0 1832,0 3337,1460 3392,3296 25,781 46,1564 46,2346 0,31868 -19158,60048 -48802,71790 -412,160 -833,237 -1249,237z"/>
  <path class="fil0" d="M27694 99265c467,27482 16548,51785 41506,62990 6561,-15360 6528,-30036 -155,-41611 -7372,-12786 -22327,-20480 -41351,-21379zm43229 70793c-416,0 -840,-77 -1248,-237 -29632,-11744 -48782,-39926 -48782,-71790 0,-782 25,-1565 47,-2346 54,-1836 1559,-3296 3392,-3296 8,0 13,0 16,0 23105,123 41540,9185 50577,24863 8264,14311 7931,32380 -941,50877 -580,1212 -1791,1929 -3061,1929z"/>
 </g>
</svg>
