<?xml version="1.0" encoding="UTF-8"?>
<!DOCTYPE svg PUBLIC "-//W3C//DTD SVG 1.1//EN" "http://www.w3.org/Graphics/SVG/1.1/DTD/svg11.dtd">
<!-- Creator: CorelDRAW X8 -->
<svg xmlns="http://www.w3.org/2000/svg" xml:space="preserve" width="165px" height="195px" version="1.1" style="shape-rendering:geometricPrecision; text-rendering:geometricPrecision; image-rendering:optimizeQuality; fill-rule:evenodd; clip-rule:evenodd"
viewBox="0 0 33046 39089"
 xmlns:xlink="http://www.w3.org/1999/xlink">
 <defs>
  <style type="text/css">
   <![CDATA[
    .fil0 {fill:#64737A;fill-rule:nonzero}
   ]]>
  </style>
 </defs>
 <g id="Capa_x0020_1">
  <metadata id="CorelCorpID_0Corel-Layer"/>
  <path class="fil0" d="M16380 30462c-1304,0 -2364,1061 -2364,2364 0,1304 1060,2365 2364,2365 1303,0 2365,-1061 2365,-2365 0,-1303 -1062,-2364 -2365,-2364zm0 6078c-2048,0 -3714,-1666 -3714,-3714 0,-2048 1666,-3714 3714,-3714 2048,0 3714,1666 3714,3714 0,2048 -1666,3714 -3714,3714z"/>
  <path class="fil0" d="M26545 37738l3303 0 0 -9824 -3303 0 0 9824zm3978 1351l-4652 0c-374,0 -676,-303 -676,-676l0 -11173c0,-373 302,-675 676,-675l4652 0c372,0 675,302 675,675l0 11173c0,373 -303,676 -675,676z"/>
  <path class="fil0" d="M3198 37738l3303 0 0 -9824 -3303 0 0 9824zm3977 1351l-4652 0c-372,0 -675,-303 -675,-676l0 -11173c0,-373 303,-675 675,-675l4652 0c373,0 675,302 675,675l0 11173c0,373 -302,676 -675,676z"/>
  <path class="fil0" d="M25871 34763l-6452 0c-373,0 -674,-303 -674,-676 0,-372 301,-675 674,-675l6452 0c372,0 674,303 674,675 0,373 -302,676 -674,676z"/>
  <path class="fil0" d="M25871 32240l-6452 0c-373,0 -674,-302 -674,-675 0,-372 301,-675 674,-675l6452 0c372,0 674,303 674,675 0,373 -302,675 -674,675z"/>
  <path class="fil0" d="M13627 34763l-6452 0c-373,0 -674,-303 -674,-676 0,-372 301,-675 674,-675l6452 0c372,0 674,303 674,675 0,373 -302,676 -674,676z"/>
  <path class="fil0" d="M13627 32240l-6452 0c-373,0 -674,-302 -674,-675 0,-372 301,-675 674,-675l6452 0c372,0 674,303 674,675 0,373 -302,675 -674,675z"/>
  <path class="fil0" d="M16380 4360c-1304,0 -2364,1060 -2364,2364 0,1304 1060,2364 2364,2364 1303,0 2365,-1060 2365,-2364 0,-1304 -1062,-2364 -2365,-2364zm0 6078c-2048,0 -3714,-1666 -3714,-3714 0,-2048 1666,-3714 3714,-3714 2048,0 3714,1666 3714,3714 0,2048 -1666,3714 -3714,3714z"/>
  <path class="fil0" d="M24895 10718l3082 1183 3522 -9171 -3084 -1184 -3520 9172zm3471 2731c-82,0 -164,-15 -241,-45l-4344 -1667c-348,-134 -522,-524 -389,-872l4005 -10432c134,-348 524,-521 872,-388l4344 1667c167,64 301,191 374,355 73,163 78,350 14,516l-4004 10432c-65,168 -193,303 -357,375 -86,39 -180,59 -274,59z"/>
  <path class="fil0" d="M1548 10718l3082 1183 3521 -9171 -3083 -1184 -3520 9172zm3471 2731c-82,0 -164,-15 -241,-45l-4344 -1667c-349,-134 -523,-524 -389,-872l4004 -10432c134,-348 524,-521 872,-388l4344 1667c167,64 302,191 374,355 73,163 78,350 14,516l-4004 10432c-64,168 -192,303 -356,375 -87,39 -180,59 -274,59z"/>
  <path class="fil0" d="M24970 8660l-5551 0c-373,0 -674,-302 -674,-675 0,-373 301,-675 674,-675l5551 0c373,0 676,302 676,675 0,373 -303,675 -676,675z"/>
  <path class="fil0" d="M25871 6138l-6452 0c-373,0 -674,-303 -674,-675 0,-372 301,-675 674,-675l6452 0c372,0 674,303 674,675 0,372 -302,675 -674,675z"/>
  <path class="fil0" d="M13627 8660l-6452 0c-373,0 -674,-302 -674,-675 0,-373 301,-675 674,-675l6452 0c372,0 674,302 674,675 0,373 -302,675 -674,675z"/>
  <path class="fil0" d="M13627 6138l-5552 0c-372,0 -675,-303 -675,-675 0,-372 303,-675 675,-675l5552 0c372,0 674,303 674,675 0,372 -302,675 -674,675z"/>
  <path class="fil0" d="M16380 30462c-373,0 -675,-302 -675,-675l0 -20023c0,-373 302,-676 675,-676 372,0 675,303 675,676l0 20023c0,373 -303,675 -675,675z"/>
 </g>
</svg>
