<?xml version="1.0" encoding="UTF-8"?>
<!DOCTYPE svg PUBLIC "-//W3C//DTD SVG 1.1//EN" "http://www.w3.org/Graphics/SVG/1.1/DTD/svg11.dtd">
<!-- Creator: CorelDRAW X8 -->
<svg xmlns="http://www.w3.org/2000/svg" xml:space="preserve" width="194px" height="195px" version="1.1" style="shape-rendering:geometricPrecision; text-rendering:geometricPrecision; image-rendering:optimizeQuality; fill-rule:evenodd; clip-rule:evenodd"
viewBox="0 0 33341 33399"
 xmlns:xlink="http://www.w3.org/1999/xlink">
 <defs>
  <style type="text/css">
   <![CDATA[
    .fil0 {fill:#64737A;fill-rule:nonzero}
   ]]>
  </style>
 </defs>
 <g id="Capa_x0020_1">
  <metadata id="CorelCorpID_0Corel-Layer"/>
  <path class="fil0" d="M12625 11872c-293,0 -566,-131 -749,-361l-3024 -3779c-199,-249 -159,-612 90,-810 249,-200 611,-159 809,89l2873 3591 6901 -8854c196,-252 558,-297 809,-100 250,195 295,557 100,808l-7051 9046c-182,234 -456,368 -752,370 -1,0 -4,0 -6,0z"/>
  <path class="fil0" d="M12352 16130c-4447,0 -8065,-3618 -8065,-8065 0,-4447 3618,-8065 8065,-8065 1763,0 3438,558 4842,1616 255,190 306,552 115,806 -191,255 -554,305 -807,114 -1203,-905 -2639,-1384 -4150,-1384 -3812,0 -6912,3101 -6912,6913 0,3812 3100,6913 6912,6913 3812,0 6913,-3101 6913,-6913 0,-585 -73,-1165 -217,-1724 -79,-309 107,-623 415,-702 308,-79 622,106 702,415 167,653 252,1330 252,2011 0,4447 -3618,8065 -8065,8065z"/>
  <path class="fil0" d="M26783 17249c-318,0 -576,-258 -576,-576l0 -2954c0,-106 -86,-193 -192,-193l-5545 0c-318,0 -576,-258 -576,-575 0,-319 258,-577 576,-577l5545 0c741,0 1344,603 1344,1345l0 2954c0,318 -258,576 -576,576z"/>
  <path class="fil0" d="M14024 31033l-11848 0c-319,0 -577,-257 -577,-575l0 -16739c0,-742 604,-1345 1345,-1345l1364 0c318,0 577,258 577,577 0,317 -259,575 -577,575l-1364 0c-106,0 -193,87 -193,193l0 16162 11273 0c318,0 576,258 576,577 0,318 -258,575 -576,575z"/>
  <path class="fil0" d="M29433 19941c0,0 0,0 0,0l0 0zm-3622 3957c101,0 202,27 292,79l5025 2945c89,52 209,22 262,-70l772 -1316c34,-59 27,-117 20,-146 -8,-28 -29,-81 -89,-117l-5025 -2944c-165,-97 -272,-270 -283,-462 -12,-191 73,-377 226,-493l1954 -1491 -10051 -1225 5983 8170 344 -2434c27,-190 147,-355 320,-439 79,-38 165,-57 250,-57zm-794 4384c-301,0 -587,-142 -772,-393l-6522 -8908c-227,-309 -248,-722 -54,-1052 193,-331 566,-511 944,-469l10961 1337c389,47 707,323 809,701 103,378 -32,777 -344,1015l-1647 1256 4284 2510c310,182 530,473 620,821 91,347 41,709 -141,1019l-771 1316c-375,640 -1200,856 -1839,480l-4284 -2510 -290 2051c-55,389 -337,702 -718,797 -78,20 -157,29 -236,29z"/>
  <path class="fil0" d="M7279 22892c-930,0 -1686,757 -1686,1686 0,472 384,855 855,855l9095 0c471,0 854,-383 854,-855 0,-929 -756,-1686 -1686,-1686l-7432 0zm8264 3693l-9095 0c-1107,0 -2008,-900 -2008,-2007 0,-1564 1274,-2838 2839,-2838l7432 0c1565,0 2838,1274 2838,2838 0,1107 -900,2007 -2006,2007z"/>
  <path class="fil0" d="M7199 21740l7592 0 -580 -1721c-135,-404 -489,-665 -903,-665l-4626 0c-413,0 -768,261 -904,665l-579 1721zm8394 1152l-9196 0c-186,0 -360,-89 -468,-239 -108,-152 -138,-344 -78,-520l835 -2482c292,-867 1094,-1449 1996,-1449l4626 0c902,0 1704,582 1996,1449l835 2482c59,176 30,368 -79,520 -108,150 -282,239 -467,239z"/>
  <path class="fil0" d="M6536 26585l0 336c0,185 151,335 336,335 185,0 335,-150 335,-335l0 -336 -671 0zm336 1824c-820,0 -1488,-668 -1488,-1488l0 -912c0,-318 258,-576 576,-576l1824 0c317,0 576,258 576,576l0 912c0,820 -668,1488 -1488,1488z"/>
  <path class="fil0" d="M14886 26585l0 336c0,185 150,335 335,335 186,0 337,-150 337,-335l0 -336 -672 0zm335 1824c-820,0 -1487,-668 -1487,-1488l0 -912c0,-318 258,-576 576,-576l1823 0c318,0 577,258 577,576l0 912c0,820 -668,1488 -1489,1488z"/>
  <path class="fil0" d="M1759 31033c-334,0 -607,273 -607,608 0,334 273,606 607,606l25497 0c335,0 606,-272 606,-606 0,-335 -271,-608 -606,-608l-25497 0zm25497 2366l-25497 0c-969,0 -1759,-789 -1759,-1758 0,-970 790,-1760 1759,-1760l25497 0c970,0 1758,790 1758,1760 0,969 -788,1758 -1758,1758z"/>
 </g>
</svg>
